<svg xmlns="http://www.w3.org/2000/svg" viewBox="0 0 80 80">
  <defs>
    <linearGradient id="hbGlow" x1="0%" y1="0%" x2="100%" y2="0%">
      <stop offset="0%" style="stop-color:#A0C554;stop-opacity:0.15"/>
      <stop offset="35%" style="stop-color:#A0C554;stop-opacity:1"/>
      <stop offset="65%" style="stop-color:#A0C554;stop-opacity:1"/>
      <stop offset="100%" style="stop-color:#A0C554;stop-opacity:0.15"/>
    </linearGradient>
    <filter id="hbSoftGlow" x="-20%" y="-20%" width="140%" height="140%">
      <feGaussianBlur stdDeviation="0.9" result="blur"/>
      <feMerge>
        <feMergeNode in="blur"/>
        <feMergeNode in="SourceGraphic"/>
      </feMerge>
    </filter>
  </defs>
  <rect width="80" height="80" rx="18" fill="#252A3A"/>
  <line x1="6" y1="40" x2="74" y2="40" stroke="#2f3548" stroke-width="0.8" stroke-dasharray="1 2"/>
  <path
    d="M 6 40
       L 18 40
       L 20 37 L 22 43 L 24 40
       L 28 40
       L 30 16 L 34 64 L 38 40
       L 41 40
       L 43 42 L 45 38 L 47 42 L 49 40
       L 52 40
       L 54 28 L 58 52 L 61 40
       L 64 40
       L 66 38 L 68 41 L 70 40
       L 74 40"
    fill="none"
    stroke="url(#hbGlow)"
    stroke-width="2.4"
    stroke-linecap="round"
    stroke-linejoin="round"
    filter="url(#hbSoftGlow)"/>
</svg>
